<?xml version="1.0" standalone="no"?>
<!DOCTYPE svg PUBLIC "-//W3C//DTD SVG 20010904//EN"
 "http://www.w3.org/TR/2001/REC-SVG-20010904/DTD/svg10.dtd">
<svg version="1.0" xmlns="http://www.w3.org/2000/svg"
 width="360.000000pt" height="360.000000pt" viewBox="0 0 360.000000 360.000000"
 preserveAspectRatio="xMidYMid meet">
<metadata>
Created by potrace 1.14, written by Peter Selinger 2001-2017
</metadata>
<g transform="translate(0.000000,360.000000) scale(0.100000,-0.100000)"
fill="#000000" stroke="none">
<path d="M1685 3179 c-353 -33 -590 -243 -687 -612 -22 -81 -22 -95 -28 -1152
-6 -952 -8 -1078 -23 -1140 -23 -95 -45 -161 -73 -217 -13 -26 -24 -50 -24
-53 0 -3 97 -5 215 -5 l215 0 25 51 c15 28 35 85 46 126 21 85 42 355 37 481
-1 45 0 82 3 82 4 0 13 -8 20 -17 25 -30 147 -103 214 -129 96 -35 177 -44
317 -33 269 20 468 106 618 266 82 87 132 172 172 293 29 87 32 106 32 225 0
116 -3 138 -28 210 -15 44 -44 107 -64 140 -72 119 -232 252 -386 321 -36 16
-66 31 -66 34 0 3 24 18 53 34 79 45 206 178 244 256 155 319 -27 672 -413
798 -113 37 -285 54 -419 41z m261 -178 c128 -65 216 -168 250 -295 21 -77 18
-248 -5 -338 -19 -74 -59 -164 -106 -239 l-23 -36 -94 18 c-180 35 -340 19
-354 -36 -18 -71 21 -103 138 -118 67 -8 106 -7 198 6 l114 17 76 -58 c175
-134 250 -315 237 -572 -15 -281 -139 -487 -361 -599 -179 -91 -376 -68 -511
60 -30 28 -68 73 -85 99 l-31 48 3 843 3 844 28 80 c71 201 205 312 378 314
58 1 77 -4 145 -38z"/>
</g>
</svg>
